# xmcd CD database file
#
# Track frame offsets:
#	150
#	13031
#	27901
#	43010
#	56832
#	76174
#	92285
#	106264
#	121371
#	139450
#	155006
#	171347
#	188220
#	201729
#	219312
#	236242
#	257925
#
# Disc length: 3683 seconds
#
# Revision: 0
# Processed by: cddbd v1.5.2PL0 Copyright (c) Steve Scherf et al.
# Submitted via: CDex 1.51
#
DISCID=f70e6111
DTITLE=Lady Antebellum - 747 (International Deluxe Edition)
DYEAR=2015
DGENRE=Country
TTITLE0=Long Stretch Of Love
TTITLE1=Bartender
TTITLE2=Lie With Me
TTITLE3=Freestyle
TTITLE4=Down South
TTITLE5=One Great Mystery
TTITLE6=Sounded Good At The Time
TTITLE7=She Is
TTITLE8=Damn You Seventeen
TTITLE9=747
TTITLE10=Just A Girl
TTITLE11=Slow Rollin'
TTITLE12=All Nighter
TTITLE13=Falling For You
TTITLE14=Just A Kiss (Backstage Acoustic Session)
TTITLE15=I Run To You (iTunes Session)
TTITLE16=Need You Now (iTunes Session)
EXTD=YEAR: 2015
EXTT0=
EXTT1=
EXTT2=
EXTT3=
EXTT4=
EXTT5=
EXTT6=
EXTT7=
EXTT8=
EXTT9=
EXTT10=
EXTT11=
EXTT12=
EXTT13=
EXTT14=
EXTT15=
EXTT16=
PLAYORDER=
